<?xml version="1.0" encoding="UTF-8"?>
<!DOCTYPE svg PUBLIC "-//W3C//DTD SVG 1.1//EN" "http://www.w3.org/Graphics/SVG/1.1/DTD/svg11.dtd">
<!-- Creator: CorelDRAW 2021 (64 Bit) -->
<svg xmlns="http://www.w3.org/2000/svg" xml:space="preserve" width="664.808mm" height="636.242mm" version="1.1" style="shape-rendering:geometricPrecision; text-rendering:geometricPrecision; image-rendering:optimizeQuality; fill-rule:evenodd; clip-rule:evenodd"
viewBox="0 0 148938.35 142538.67"
 xmlns:xlink="http://www.w3.org/1999/xlink"
 xmlns:xodm="http://www.corel.com/coreldraw/odm/2003">
 <defs>
  <style type="text/css">
   <![CDATA[
    .fil0 {fill:#D5D2E4}
   ]]>
  </style>
 </defs>
 <g id="Camada_x0020_1">
  <metadata id="CorelCorpID_0Corel-Layer"/>
  <g id="_2059630173856">
   <path class="fil0" d="M-0 22108.04l0 75051.04c0,9461.86 8004.08,18489.72 17681.19,21007.77 5476.8,1425.11 30559.87,809.29 38170.64,809.29l-2908.97 11926.7 -16580.9 0c-2923.8,0 -5236.17,3138.94 -5236.17,4945.19 0,2008.18 -109.06,3382.3 1802.18,5179.33 874.82,822.49 2125.48,1511.3 3724.85,1511.3l75632.67 0c3115.97,0 5527.05,-2955.79 5527.05,-4945.28l0 -1454.48c0,-2625.01 -2611.05,-5236.05 -5236.17,-5236.05l-16580.9 0 -1395.9 -5876.63c-523.59,-2096.13 -1039.71,-4018.13 -1513.07,-6050.07 7090.03,0 33090.13,539.87 37980.57,-708.5 2584.55,-659.68 4819.65,-1578.37 6763.64,-2835.95 946.38,-612.32 2101.42,-1307.41 2894.78,-2050.41 5510.43,-5160.42 8212.83,-9997.23 8212.83,-18549.43 0,-2132.29 -2812.88,-4945.17 -4945.19,-4945.17 -8274.06,0 -5764.81,5986.87 -7942.85,10674.5 -1595.18,3433.2 -5467.57,6488.37 -10383.62,6488.37l-102395.02 0c-6763.21,0 -11635.84,-5306.62 -11635.84,-12508.56l0 -70687.5c0,-8014.19 5698.97,-12217.68 13381.19,-12217.68l98904.33 0c16390.07,0 13381.19,15196.67 13381.19,26180.52l-0.56 29671.85c193.14,2224.77 2688,4944.75 4945.73,4944.75l1745.46 0c2132.31,0 4945.19,-2812.88 4945.19,-4945.28l0 -45379.61c0,-11294.93 -10637.22,-22108.04 -22398.92,-22108.04l-104140.5 0c-11762.35,0 -22398.92,10810.8 -22398.92,22108.04zm68387.75 96487.1l13002.48 0 3073.52 12261.65 -19533.6 0 3457.6 -12261.65z"/>
   <path class="fil0" d="M28216.83 44215.99c0,2053.93 595.5,4591.09 1158.87,6113.63 336.83,910.53 710.16,1809.33 1176.59,2605 484.67,826.66 961.66,1419.74 1446.22,2335.44 -1479.08,394.99 -4625.72,4154.9 -5413.04,5350.18 -1458.76,2214.62 -3313.81,5064.33 -3313.81,8031.01 0,5245.73 7323.72,7840.52 10819.04,2964.91 640.44,-893.51 1003.44,-2769.01 2385.36,-4596.15 3742.88,-4948.91 11065.95,-6229.05 16060.27,-3198.3 7064.63,4287.26 3997.81,10356.6 11169.74,10356.6 3412.32,0 5526.91,-2586.99 5526.91,-6399.68 0,-2232.23 -2239.92,-5733.05 -3251.94,-7220.28 -2653.14,-3899.21 -4321.76,-4291.53 -5183.94,-5579.14 845.79,-1598.49 1609.27,-2522.89 2334.03,-4356.53 3594.15,-9093.48 -1262.87,-19983.1 -9934.23,-23241.64 -4882.53,-1834.84 -9764.5,-1988.73 -14414.74,347.27 -2680.74,1346.75 -3250.53,1765.35 -5257.18,3760.47 -2933.14,2916.11 -5308.17,6987.25 -5308.17,12727.21zm18033.84 -7413.98c3630.98,0 6574.58,2943.58 6574.58,6574.56 0,3630.98 -2943.6,6574.56 -6574.58,6574.56 -3630.98,0 -6574.56,-2943.58 -6574.56,-6574.56 0,-3630.98 2943.58,-6574.56 6574.56,-6574.56z"/>
   <path class="fil0" d="M101522.51 59051.75c-2086.68,-1397.31 -5769.32,-6399.77 -8435.99,-6399.77l-1454.48 0c-3288.97,0 -5236.17,2707.14 -5236.17,6399.77 0,3131.56 4037.73,5624.77 6618,8217.7 2417.46,2429.34 5820.67,6036.12 8799.53,6036.12 3244.68,0 4476.88,-2311.61 6185.19,-3996.17l12351.04 -13829.36c3846.99,-4478.96 -166.99,-9809.56 -3409.81,-9809.56 -4950.01,0 -4625.95,1428.85 -9095.68,6030.85l-6321.62 7350.42z"/>
   <path class="fil0" d="M82323.32 86686.86c0,1564.19 805.1,3284.69 1657.95,4159.94 1012.67,1039.4 2241.46,1948.83 4159.96,1948.83l31998.43 0c7048.9,0 8108.28,-11926.7 -1163.62,-11926.7l-29380.32 0c-2890.93,0 -5272.77,909.01 -6417.15,3182.35 -215.45,428.19 -855.24,2039.32 -855.24,2635.58z"/>
   <path class="fil0" d="M24726.12 86395.87c0,3785.98 2326.55,6399.77 5527.05,6399.77l31998.43 0c5269.91,0 7810.16,-7236.88 3674.73,-10365.47 -1378.96,-1043.23 -2820.25,-1561.23 -5129.21,-1561.23l-29380.34 0c-3433.87,0 -6690.65,2182.12 -6690.65,5526.94z"/>
  </g>
 </g>
</svg>
