<?xml version="1.0" encoding="UTF-8"?>
<!DOCTYPE svg PUBLIC "-//W3C//DTD SVG 1.1//EN" "http://www.w3.org/Graphics/SVG/1.1/DTD/svg11.dtd">
<!-- Creator: CorelDRAW 2021 (64 Bit) -->
<svg xmlns="http://www.w3.org/2000/svg" xml:space="preserve" width="664.634mm" height="656.845mm" version="1.1" style="shape-rendering:geometricPrecision; text-rendering:geometricPrecision; image-rendering:optimizeQuality; fill-rule:evenodd; clip-rule:evenodd"
viewBox="0 0 7693.19 7603.03"
 xmlns:xlink="http://www.w3.org/1999/xlink"
 xmlns:xodm="http://www.corel.com/coreldraw/odm/2003">
 <defs>
  <style type="text/css">
   <![CDATA[
    .fil0 {fill:#D5D2E4}
   ]]>
  </style>
 </defs>
 <g id="Camada_x0020_1">
  <metadata id="CorelCorpID_0Corel-Layer"/>
  <g id="_2048464571088">
   <path class="fil0" d="M931.6 3951.77c0,712.55 216.19,1318.29 629.01,1835.22l263.85 292.1c161.36,124.18 142.56,145.04 411.33,324.93 77.12,51.62 145.76,86.77 225.53,135.09 86.58,52.45 161.2,75.87 253.71,121.93 88.63,44.14 144.09,83.08 194.3,166.31 115.4,191.31 -12.26,448.35 98.22,638.05 39.93,68.56 132.93,137.63 238.02,137.63l1202.06 0c365.48,0 285.49,-499.37 285.49,-736.26 0,-209.71 -360.57,-373.03 -535.41,-144.74 -52.94,69.12 -78.17,168.72 -80.65,279.97l-540.93 0c-31.66,-380.51 -186.22,-614.14 -424.78,-792.31 -245.98,-183.7 -492.38,-162.3 -931.29,-601.34 -62.3,-62.31 -93.63,-95.97 -151.15,-164.39 -290.05,-344.97 -521.25,-870.55 -521.25,-1326.91 0,-448.94 23.75,-724.71 225.38,-1126.94 62.3,-124.27 120.56,-226.9 201.65,-339.28 457.15,-633.54 1146.83,-952.93 1932.02,-952.93 360.76,0 634.08,93.24 895.22,201.67 249.49,103.59 474.67,277.89 665.94,460.99l237.66 273.22c240.86,319.84 440.03,816 440.03,1227.84 0,500.86 -58.87,863.64 -299.65,1263.03l-130.06 200.51c-201.3,292.21 -441.78,404.08 -441.78,579.96 0,110.07 -1.1,153.15 78.23,237.31 79.98,84.87 141.64,93.26 237.31,93.26 135.17,0 195.96,-83.21 266.71,-154.01 241.22,-241.41 202.83,-202.82 390.23,-451.22l164.5 -271.25c141.05,-284.49 148.85,-296.62 247.33,-609.14 192.91,-612.21 100.23,-1430.93 -162.02,-1975.52 -149.46,-310.38 -433.39,-734.23 -690.05,-932.73l-196.98 -163.64c-41.59,-34.16 -57.07,-45.59 -103.83,-76.48 -506,-334.37 -1037.54,-519.84 -1658.89,-519.84 -662.53,0 -1259.44,223.37 -1753.91,590.1 -211.3,156.71 -478.34,420.68 -623.36,638.8 -320.26,481.69 -537.72,983.71 -537.72,1641.01z"/>
   <path class="fil0" d="M3801.52 3996.85c-136.08,-91.13 -294.1,-405.7 -510.88,-405.7 -133.25,0 -300.51,128.24 -300.51,255.44 0,218.2 7.18,182.14 161.71,349.16 39.73,42.95 52.63,68.82 97.35,113.02 200.39,198.06 368.77,469.43 567.35,469.43 155.14,0 244.77,-130.96 320.19,-220.74 87.81,-104.51 165.18,-199.8 254.13,-301.82l375.79 -450.62c272.77,-306.55 -145.78,-744.69 -452.08,-407.01 -72.24,79.64 -454.91,559.91 -513.06,598.85z"/>
   <path class="fil0" d="M3546.08 255.43l0 165.29c0,374.07 601.03,374.07 601.03,0l0 -165.29c0,-110.14 -145.29,-255.43 -255.44,-255.43l-90.15 0c-110.15,0 -255.44,145.29 -255.44,255.43z"/>
   <path class="fil0" d="M6986.98 3801.51c0,157.62 128.2,300.52 285.49,300.52 134.89,0 228.36,15.27 327.63,-78.06 57.22,-53.8 85.9,-118.21 93.09,-183.15l0 -67.63c-15.57,-143.6 -126.95,-272.18 -255.44,-272.18l-165.29 0c-157.28,0 -285.49,142.9 -285.49,300.52z"/>
   <path class="fil0" d="M5950.2 1352.32c0,556.1 676.16,361.31 676.16,-30.05 0,-218.77 -284.09,-447.12 -544.77,-184.15 -48.28,48.7 -131.39,125.51 -131.39,214.21z"/>
   <path class="fil0" d="M1066.83 1322.27c0,179.09 181.95,375.64 390.67,375.64 163.6,0 285.49,-129.22 285.49,-315.54 0,-154.09 -185.79,-360.62 -375.64,-360.62 -165.35,0 -300.51,136.51 -300.51,300.52z"/>
   <path class="fil0" d="M-0 3802.13c0.73,80.36 9.54,143.28 93.09,221.84 147.1,138.31 613.12,125.87 613.12,-222.45 0,-157.62 -128.21,-300.52 -285.49,-300.52l-165.28 0c-110.15,0 -255.44,145.29 -255.44,255.44l0 45.69z"/>
  </g>
 </g>
</svg>
