<?xml version="1.0" encoding="UTF-8"?>
<!DOCTYPE svg PUBLIC "-//W3C//DTD SVG 1.1//EN" "http://www.w3.org/Graphics/SVG/1.1/DTD/svg11.dtd">
<!-- Creator: CorelDRAW 2021 (64 Bit) -->
<svg xmlns="http://www.w3.org/2000/svg" xml:space="preserve" width="1915.58mm" height="762mm" version="1.1" style="shape-rendering:geometricPrecision; text-rendering:geometricPrecision; image-rendering:optimizeQuality; fill-rule:evenodd; clip-rule:evenodd"
viewBox="0 0 145151.72 57739.92"
 xmlns:xlink="http://www.w3.org/1999/xlink"
 xmlns:xodm="http://www.corel.com/coreldraw/odm/2003">
 <defs>
  <style type="text/css">
   <![CDATA[
    .fil0 {fill:url(#id0);fill-rule:nonzero;fill-opacity:0.188235}
   ]]>
  </style>
  <linearGradient id="id0" gradientUnits="userSpaceOnUse" x1="62473.59" y1="-2689.43" x2="65017.81" y2="69118.44">
   <stop offset="0" style="stop-opacity:1; stop-color:#A595ED"/>
   <stop offset="1" style="stop-opacity:1; stop-color:#C361C2"/>
  </linearGradient>
 </defs>
 <g id="Camada_x0020_1">
  <metadata id="CorelCorpID_0Corel-Layer"/>
  <path class="fil0" d="M-0 57338.94l0 -56937.97 38653.66 0 0 11547.98 -25501.8 0 0 12269.73 21010.91 0 0 10665.84 -21010.91 0 0 22454.41 -13151.86 0zm54852.91 -56937.97l11868.76 0 20770.33 56937.97 -13472.65 0 -4410.69 -12750.9 -17722.94 0 -4330.49 12750.9 -13472.65 0 20770.33 -56937.97zm12590.51 35125.12l-6656.13 -20128.78 -6816.52 20128.78 13472.65 0zm62391.18 18605.08c-2031.59,1122.72 -4210.2,2004.86 -6535.84,2646.41 -2325.64,641.55 -4771.56,962.33 -7337.78,962.33 -4223.57,0 -8072.9,-815.31 -11547.98,-2445.93 -3475.09,-1630.61 -6442.27,-3795.86 -8901.57,-6495.74 -2459.29,-2699.87 -4370.59,-5787.36 -5733.89,-9262.44 -1363.31,-3475.09 -2044.96,-7057.1 -2044.96,-10746.03 0,-3742.4 708.38,-7351.15 2125.15,-10826.23 1416.77,-3475.09 3394.89,-6549.21 5934.38,-9222.35 2539.49,-2673.14 5546.78,-4798.29 9021.86,-6375.45 3475.09,-1577.15 7270.95,-2365.73 11387.59,-2365.73 4223.57,0 8072.9,842.04 11547.98,2526.12 3475.09,1684.08 6442.27,3889.43 8901.57,6616.03 2459.29,2726.6 4357.23,5827.46 5693.8,9302.54 1336.57,3475.09 2004.86,7003.63 2004.86,10585.65 0,3635.47 -641.56,7110.56 -1924.66,10425.26 -1283.11,3314.7 -3100.85,6281.89 -5453.22,8901.57l8179.82 8981.76 -12349.92 0 -2967.19 -3207.77zm-13793.43 -8099.63c2138.52,0 4009.72,-347.51 5613.61,-1042.52l-9142.15 -10104.49 12349.92 0 3528.55 3929.52c855.41,-1496.96 1496.96,-3100.85 1924.66,-4811.66 427.7,-1710.81 641.55,-3448.35 641.55,-5212.63 0,-2191.98 -320.77,-4317.13 -962.33,-6375.45 -641.55,-2058.32 -1603.88,-3876.06 -2887,-5453.22 -1283.11,-1577.16 -2846.9,-2846.9 -4691.37,-3809.23 -1844.46,-962.33 -3969.62,-1443.5 -6375.45,-1443.5 -2512.75,0 -4691.37,494.53 -6535.83,1483.59 -1844.47,989.07 -3394.89,2298.9 -4651.28,3929.53 -1256.37,1630.61 -2191.97,3475.09 -2806.8,5533.41 -614.82,2058.32 -922.23,4156.74 -922.23,6295.25 0,2191.98 320.77,4317.13 962.33,6375.45 641.55,2058.32 1590.51,3876.06 2846.9,5453.22 1256.37,1577.16 2820.16,2846.9 4691.37,3809.23 1871.2,962.33 4009.71,1443.5 6415.54,1443.5z"/>
 </g>
</svg>
