<?xml version="1.0" encoding="UTF-8"?>
<!DOCTYPE svg PUBLIC "-//W3C//DTD SVG 1.1//EN" "http://www.w3.org/Graphics/SVG/1.1/DTD/svg11.dtd">
<!-- Creator: CorelDRAW 2021 (64 Bit) -->
<svg xmlns="http://www.w3.org/2000/svg" xml:space="preserve" width="603.12mm" height="603.472mm" version="1.1" style="shape-rendering:geometricPrecision; text-rendering:geometricPrecision; image-rendering:optimizeQuality; fill-rule:evenodd; clip-rule:evenodd"
viewBox="0 0 5387.87 5391.01"
 xmlns:xlink="http://www.w3.org/1999/xlink"
 xmlns:xodm="http://www.corel.com/coreldraw/odm/2003">
 <defs>
  <style type="text/css">
   <![CDATA[
    .fil0 {fill:#D5D2E4}
   ]]>
  </style>
 </defs>
 <g id="Camada_x0020_1">
  <metadata id="CorelCorpID_0Corel-Layer"/>
  <g id="_2056373187536">
   <path class="fil0" d="M100.49 3453.66c80.73,291.83 242.91,608.49 419.69,843.83l214.65 259.17c84.91,83.95 164.53,152.38 252.87,231.48 405.05,362.69 1090.47,602.87 1629.34,602.87l12.04 0 34.62 0c223.55,-0.07 307.66,-2.08 556.34,-49.82 96.72,-18.57 287.8,-68.71 379.33,-105.02 63.33,-25.12 112.43,-40.98 172.38,-69.79 120.18,-57.77 414.17,-167.76 414.17,-312.36l0 -63.18c0,-87.14 -133.73,-266.97 -360.04,-128.4 -88.46,54.17 -303.81,153.02 -398.06,181.05 -139.97,41.62 -306.89,92.67 -462.97,105.61 -54.38,4.51 -128,5.02 -188.31,11.75 -422.95,47.19 -884.27,-117.21 -1226.56,-303.27 -182.42,-99.16 -440.74,-313.54 -573.95,-478.99l-171.62 -217.97c-243.84,-351.87 -387.98,-837.61 -387.98,-1265.12 0,-416.6 121.82,-812.47 326.83,-1168.34l124.42 -180.94c112.78,-150.33 243.93,-292.2 389.46,-410.76 96.53,-78.64 251.06,-184.23 359.5,-240.68 273.24,-142.22 605.17,-254.69 937.52,-262.82 68.37,-1.67 101.3,-19.1 184.81,-6.37 87.21,13.3 209.11,6.14 363.43,36.69 338.56,67.03 567.73,164.54 853.92,346.42 226.7,144.08 355.97,-37.21 355.97,-145.38 0,-88.48 -22.81,-142.04 -105,-200.35 -366.79,-260.19 -955.22,-463 -1411.22,-463 -492.66,0 -804.67,50.91 -1210.74,231.78 -143.21,63.79 -276.42,142.42 -404.49,227.27 -163.38,108.25 -296.89,227.61 -435.38,364.85 -273.68,271.21 -538.31,730.92 -642.69,1105.18 -135.9,487.26 -137.31,1036.37 -2.25,1524.58z"/>
   <path class="fil0" d="M1385.11 2169.04c-137.78,0 -221.11,83.34 -221.11,221.11 0,106.12 78.41,156.83 134.2,213.27l184.31 173.69c62.96,63.01 120.64,110.1 184.26,173.73l315.41 295.29c18.7,15.63 30.58,29.51 47.86,46.9l184.46 173.53c168.94,167.15 252.88,260.81 518.36,260.81 210.2,0 336.03,-124.07 445.55,-259.92 108.92,-135.1 211.46,-260.39 318.5,-397.49l319.09 -396.91c27.95,-35.09 50.53,-62.3 79.64,-99.36l1352.37 -1680.07c86.44,-109.13 138.25,-141.05 138.25,-261.87 0,-57.89 -24.93,-103.16 -54.71,-134.83 -90.08,-95.81 -237.26,-86.7 -326.96,16.4 -38.15,43.85 -70.24,87.83 -107.24,134.94l-2060.56 2561.82c-165.02,209.4 -233.64,17 -412.39,-132.42l-805.1 -763.77c-87.52,-77.07 -142.29,-144.86 -234.2,-144.86z"/>
   <path class="fil0" d="M4543.9 4064.32c0,238.73 273.57,291.4 389.88,126.65 91.89,-130.15 212.32,-373.55 270.55,-519.15 47.3,-118.29 94.11,-268.64 123,-403.46 78.44,-365.95 80.37,-746.22 7.35,-1110.94 -33.16,-165.61 -57.62,-293.73 -253.8,-293.73 -89.75,0 -170.36,75.17 -192.8,165.92 -31.18,126.02 243.23,710.86 -106.53,1545.85 -37.84,90.35 -73.45,158.01 -118.48,239.52 -35.26,63.84 -119.18,168.26 -119.18,249.34z"/>
  </g>
 </g>
</svg>
