<?xml version="1.0" encoding="UTF-8"?>
<!DOCTYPE svg PUBLIC "-//W3C//DTD SVG 1.1//EN" "http://www.w3.org/Graphics/SVG/1.1/DTD/svg11.dtd">
<!-- Creator: CorelDRAW 2021 (64 Bit) -->
<svg xmlns="http://www.w3.org/2000/svg" xml:space="preserve" width="11.1725mm" height="5.5187mm" version="1.1" style="shape-rendering:geometricPrecision; text-rendering:geometricPrecision; image-rendering:optimizeQuality; fill-rule:evenodd; clip-rule:evenodd"
viewBox="0 0 15.77 7.79"
 xmlns:xlink="http://www.w3.org/1999/xlink"
 xmlns:xodm="http://www.corel.com/coreldraw/odm/2003">
 <defs>
  <style type="text/css">
   <![CDATA[
    .fil0 {fill:#1D121A}
   ]]>
  </style>
 </defs>
 <g id="Camada_x0020_1">
  <metadata id="CorelCorpID_0Corel-Layer"/>
  <g id="_2636056997584">
   <path class="fil0" d="M15.2 3.36l-14.58 -0.01c-0.33,0 -0.6,0.26 -0.62,0.59l0 0c-0.02,0.33 0.23,0.59 0.56,0.59l14.58 0.01c0.32,0 0.61,-0.26 0.62,-0.59l0 -0c0.02,-0.32 -0.23,-0.59 -0.56,-0.59z"/>
   <path class="fil0" d="M15.56 3.43l-3.9 -3.29c-0.25,-0.21 -0.63,-0.18 -0.84,0.06l-0 0c-0.21,0.24 -0.19,0.61 0.06,0.82l3.9 3.29c0.25,0.21 0.63,0.18 0.84,-0.06l0 -0c0.22,-0.24 0.19,-0.61 -0.06,-0.82z"/>
   <path class="fil0" d="M10.88 6.76l3.9 -3.29c0.25,-0.21 0.63,-0.18 0.84,0.06l0 0c0.22,0.24 0.19,0.61 -0.06,0.82l-3.9 3.29c-0.25,0.21 -0.63,0.18 -0.84,-0.06l-0 -0c-0.21,-0.24 -0.19,-0.61 0.06,-0.82z"/>
  </g>
 </g>
</svg>
