<?xml version="1.0" encoding="UTF-8"?>
<!DOCTYPE svg PUBLIC "-//W3C//DTD SVG 1.1//EN" "http://www.w3.org/Graphics/SVG/1.1/DTD/svg11.dtd">
<!-- Creator: CorelDRAW 2021 (64 Bit) -->
<svg xmlns="http://www.w3.org/2000/svg" xml:space="preserve" width="210mm" height="297mm" version="1.1" style="shape-rendering:geometricPrecision; text-rendering:geometricPrecision; image-rendering:optimizeQuality; fill-rule:evenodd; clip-rule:evenodd"
viewBox="0 0 21000 29700"
 xmlns:xlink="http://www.w3.org/1999/xlink"
 xmlns:xodm="http://www.corel.com/coreldraw/odm/2003">
 <defs>
  <style type="text/css">
   <![CDATA[
    .fil0 {fill:black;fill-rule:nonzero}
    .fil1 {fill:#337F4E;fill-rule:nonzero}
    .fil2 {fill:#697859;fill-rule:nonzero}
   ]]>
  </style>
 </defs>
 <g id="Camada_x0020_1">
  <metadata id="CorelCorpID_0Corel-Layer"/>
  <g id="_2142694905376">
   <polygon class="fil0" points="9171.1,16615.65 9171.1,15149.08 9473.03,15149.08 9559.31,15278.49 9300.51,15278.49 9300.51,16486.26 11672.89,16486.26 11672.89,15278.49 11500.35,15278.49 11586.61,15149.08 11802.28,15149.08 11802.28,16615.65 "/>
   <polygon class="fil0" points="10723.92,16227.44 10249.45,16227.44 10314.16,15774.55 10659.22,15774.55 "/>
   <path class="fil1" d="M9960.14 15623.56l-86.26 150.99c258.8,50.29 1056.77,121.54 1488.12,-388.22 456.23,-539.18 237.22,-1186.19 0,-1509.7l-323.51 323.51c-107.84,-754.85 -280.37,-1703.81 -582.3,-1897.91 -366.66,345.07 -668.59,1552.83 -668.59,1552.83l-107.84 -86.27c-258.8,258.81 -625.45,1079.15 43.13,1574.41 582.31,431.35 1121.48,129.39 1315.6,-86.28l-107.84 -64.71c-301.95,194.12 -695.68,322.64 -1056.77,64.71 -603.88,-431.35 -345.09,-1056.78 -194.12,-1186.19 194.12,86.27 431.34,452.92 431.34,452.92l107.84 -107.84c0,0 -107.84,-215.67 -258.8,-388.21 237.22,-1186.19 539.17,-1358.73 539.17,-1358.73 0,0 237.23,194.11 409.77,2027.32 107.84,-150.99 280.38,-431.35 452.92,-452.92 194.1,258.8 64.7,750.53 -194.09,1078.35 -258.83,327.82 -798,366.64 -1207.77,301.94z"/>
   <path class="fil2" d="M7370.12 17073.43l125.42 37.91c-8.42,35.16 -21.7,64.55 -39.81,88.15 -18.11,23.56 -40.65,41.38 -67.61,53.38 -26.74,12 -60.87,18.01 -102.35,18.01 -50.34,0 -91.52,-7.26 -123.53,-21.8 -31.8,-14.75 -59.29,-40.54 -82.46,-77.41 -23.17,-36.85 -34.75,-84.03 -34.75,-141.52 0,-76.68 20.32,-135.55 60.98,-176.62 40.86,-41.28 98.57,-61.92 173.12,-61.92 58.34,0 104.16,11.81 137.43,35.4 33.49,23.59 58.34,59.8 74.56,108.66l-126.38 28.12c-4.42,-14.1 -9.05,-24.42 -13.9,-30.96 -8,-10.94 -17.79,-19.37 -29.37,-25.28 -11.59,-5.88 -24.54,-8.82 -38.86,-8.82 -32.44,0 -57.29,13.05 -74.56,39.17 -13.06,19.37 -19.59,49.8 -19.59,91.3 0,51.39 7.79,86.66 23.38,105.83 15.59,18.95 37.49,28.44 65.71,28.44 27.38,0 48.02,-7.69 61.92,-23.06 14.12,-15.38 24.33,-37.72 30.65,-66.98z"/>
   <path class="fil2" d="M7929.3 17126.82l-257.79 0c2.31,20.64 7.9,36.01 16.74,46.12 12.43,14.53 28.65,21.79 48.66,21.79 12.63,0 24.64,-3.15 36.01,-9.47 6.95,-4 14.43,-11.07 22.44,-21.17l126.68 11.7c-19.38,33.7 -42.76,57.91 -70.14,72.67 -27.38,14.52 -66.66,21.78 -117.84,21.78 -44.44,0 -79.4,-6.2 -104.89,-18.64 -25.48,-12.64 -46.64,-32.53 -63.49,-59.7 -16.65,-27.39 -24.96,-59.5 -24.96,-96.36 0,-52.43 16.74,-94.88 50.23,-127.32 33.7,-32.44 80.14,-48.64 139.32,-48.64 48.02,0 85.93,7.26 113.73,21.78 27.8,14.55 48.97,35.6 63.5,63.2 14.54,27.58 21.8,63.5 21.8,107.73l0 14.53zm-130.79 -61.61c-2.53,-24.85 -9.26,-42.64 -20.22,-53.39 -10.74,-10.74 -24.96,-16.11 -42.65,-16.11 -20.43,0 -36.75,8.11 -48.97,24.33 -7.79,10.11 -12.73,25.17 -14.85,45.17l126.69 0z"/>
   <path class="fil2" d="M7989.33 16927.15l120.06 0 0 48.98c17.26,-20.43 34.64,-34.98 52.12,-43.6 17.7,-8.64 38.96,-12.95 63.81,-12.95 26.75,0 47.92,4.73 63.51,14.2 15.58,9.48 28.32,23.59 38.22,42.35 20.22,-21.92 38.65,-36.76 55.29,-44.55 16.64,-8.01 37.18,-12 61.61,-12 36.01,0 64.13,10.72 84.34,32.21 20.22,21.28 30.33,54.66 30.33,100.15l0 210.72 -128.9 0 0 -191.14c0,-15.16 -2.94,-26.42 -8.84,-33.79 -8.64,-11.59 -19.37,-17.39 -32.22,-17.39 -15.17,0 -27.38,5.48 -36.64,16.44 -9.27,10.95 -13.91,28.54 -13.91,52.74l0 173.14 -128.9 0 0 -184.81c0,-14.74 -0.84,-24.74 -2.52,-30.01 -2.74,-8.43 -7.48,-15.16 -14.22,-20.21 -6.74,-5.27 -14.64,-7.9 -23.7,-7.9 -14.73,0 -26.85,5.56 -36.33,16.73 -9.47,11.17 -14.21,29.5 -14.21,54.98l0 171.22 -128.9 0 0 -335.51z"/>
   <path class="fil2" d="M8640.13 16799.51l128.59 0 0 87.51 -128.59 0 0 -87.51zm0 127.64l128.59 0 0 335.51 -128.59 0 0 -335.51z"/>
   <path class="fil2" d="M9005.98 16799.51l0 127.64 70.76 0 0 93.83 -70.76 0 0 119.11c0,14.31 1.36,23.8 4.1,28.43 4.21,7.16 11.59,10.75 22.12,10.75 9.48,0 22.75,-2.74 39.8,-8.22l9.48 88.76c-31.8,6.95 -61.5,10.43 -89.09,10.43 -32.02,0 -55.61,-4.09 -70.77,-12.31 -15.16,-8.22 -26.43,-20.65 -33.8,-37.29 -7.16,-16.84 -10.74,-44 -10.74,-81.51l0 -118.15 -47.39 0 0 -93.83 47.39 0 0 -61.6 128.9 -66.04z"/>
   <path class="fil2" d="M9510.83 17126.82l-257.8 0c2.31,20.64 7.9,36.01 16.75,46.12 12.43,14.53 28.63,21.79 48.66,21.79 12.63,0 24.63,-3.15 36.01,-9.47 6.94,-4 14.42,-11.07 22.42,-21.17l126.67 11.7c-19.37,33.7 -42.75,57.91 -70.11,72.67 -27.4,14.52 -66.66,21.78 -117.84,21.78 -44.45,0 -79.41,-6.2 -104.89,-18.64 -25.5,-12.64 -46.66,-32.53 -63.5,-59.7 -16.65,-27.39 -24.96,-59.5 -24.96,-96.36 0,-52.43 16.74,-94.88 50.22,-127.32 33.7,-32.44 80.14,-48.64 139.33,-48.64 48.01,0 85.94,7.26 113.74,21.78 27.79,14.55 48.97,35.6 63.49,63.2 14.52,27.58 21.81,63.5 21.81,107.73l0 14.53zm-130.79 -61.61c-2.53,-24.85 -9.28,-42.64 -20.24,-53.39 -10.72,-10.74 -24.95,-16.11 -42.64,-16.11 -20.43,0 -36.76,8.11 -48.97,24.33 -7.79,10.11 -12.74,25.17 -14.85,45.17l126.7 0zm-67.94 -273.6l110.58 0 -102.04 94.47 -61.61 0 53.07 -94.47z"/>
   <path class="fil2" d="M9571.16 16927.15l120.36 0 0 54.97c11.6,-23.79 23.49,-40.12 35.7,-48.97 12.45,-9.05 27.72,-13.57 45.81,-13.57 18.96,0 39.71,5.88 62.24,17.69l-39.79 91.61c-15.16,-6.31 -27.19,-9.47 -36.02,-9.47 -16.86,0 -29.93,6.94 -39.18,20.85 -13.28,19.58 -19.9,56.23 -19.9,109.94l0 112.46 -129.22 0 0 -335.51z"/>
   <path class="fil2" d="M9862.13 16799.51l128.59 0 0 87.51 -128.59 0 0 -87.51zm0 127.64l128.59 0 0 335.51 -128.59 0 0 -335.51z"/>
   <path class="fil2" d="M10057.06 17095.86c0,-51.19 17.26,-93.32 51.81,-126.38 34.53,-33.27 81.19,-49.9 139.95,-49.9 67.18,0 117.94,19.47 152.28,58.44 27.58,31.39 41.39,70.03 41.39,115.94 0,51.61 -17.18,93.93 -51.5,127 -34.13,32.85 -81.4,49.28 -141.85,49.28 -53.92,0 -97.52,-13.69 -130.8,-41.07 -40.86,-33.91 -61.28,-78.33 -61.28,-133.31zm128.9 -0.32c0,29.9 5.98,52.03 18.01,66.34 12.2,14.33 27.48,21.49 45.8,21.49 18.54,0 33.7,-7.05 45.49,-21.18 12,-14.09 18.01,-36.75 18.01,-67.91 0,-29.07 -6.01,-50.67 -18.01,-64.77 -11.99,-14.33 -26.84,-21.48 -44.56,-21.48 -18.72,0 -34.2,7.26 -46.41,21.8 -12.23,14.31 -18.33,36.23 -18.33,65.71z"/>
   <polygon class="fil2" points="10727.45,16799.51 10915.72,16799.51 10988.39,17081.33 11060.75,16799.51 11248.41,16799.51 11248.41,17262.66 11131.51,17262.66 11131.51,16909.47 11040.85,17262.66 10935.01,17262.66 10844.65,16909.47 10844.65,17262.66 10727.45,17262.66 "/>
   <path class="fil2" d="M11315.71 17095.86c0,-51.19 17.26,-93.32 51.79,-126.38 34.55,-33.27 81.21,-49.9 139.97,-49.9 67.18,0 117.94,19.47 152.28,58.44 27.58,31.39 41.39,70.03 41.39,115.94 0,51.61 -17.19,93.93 -51.51,127 -34.11,32.85 -81.41,49.28 -141.85,49.28 -53.92,0 -97.51,-13.69 -130.78,-41.07 -40.87,-33.91 -61.29,-78.33 -61.29,-133.31zm128.87 -0.32c0,29.9 6.01,52.03 18.01,66.34 12.24,14.33 27.5,21.49 45.83,21.49 18.52,0 33.68,-7.05 45.49,-21.18 12,-14.09 18.01,-36.75 18.01,-67.91 0,-29.07 -6.01,-50.67 -18.01,-64.77 -12,-14.33 -26.87,-21.48 -44.56,-21.48 -18.73,0 -34.2,7.26 -46.44,21.8 -12.21,14.31 -18.33,36.23 -18.33,65.71z"/>
   <path class="fil2" d="M11764.31 16927.15l120.37 0 0 54.97c11.59,-23.79 23.48,-40.12 35.69,-48.97 12.43,-9.05 27.69,-13.57 45.81,-13.57 18.96,0 39.71,5.88 62.24,17.69l-39.79 91.61c-15.19,-6.31 -27.19,-9.47 -36.02,-9.47 -16.86,0 -29.92,6.94 -39.18,20.85 -13.28,19.58 -19.9,56.23 -19.9,109.94l0 112.46 -129.22 0 0 -335.51z"/>
   <path class="fil2" d="M12425.53 17262.66l-120.05 0 0 -54.34c-17.9,22.34 -36.01,38.23 -54.33,47.71 -18.12,9.47 -40.44,14.21 -66.98,14.21 -35.38,0 -63.18,-10.53 -83.4,-31.6 -20,-21.25 -30,-53.91 -30,-97.91l0 -213.58 129.19 0 0 184.5c0,21.07 3.91,36.02 11.71,44.85 7.79,8.86 18.73,13.28 32.85,13.28 15.37,0 27.9,-5.89 37.58,-17.69 9.9,-11.79 14.85,-32.96 14.85,-63.5l0 -161.44 128.58 0 0 335.51z"/>
   <path class="fil2" d="M12504.53 16927.15l120.05 0 0 48.98c17.26,-20.43 34.63,-34.98 52.13,-43.6 17.69,-8.64 38.95,-12.95 63.81,-12.95 26.74,0 47.91,4.73 63.5,14.2 15.59,9.48 28.32,23.59 38.22,42.35 20.22,-21.92 38.65,-36.76 55.3,-44.55 16.63,-8.01 37.16,-12 61.61,-12 36.01,0 64.13,10.72 84.34,32.21 20.22,21.28 30.33,54.66 30.33,100.15l0 210.72 -128.9 0 0 -191.14c0,-15.16 -2.96,-26.42 -8.84,-33.79 -8.64,-11.59 -19.38,-17.39 -32.23,-17.39 -15.16,0 -27.38,5.48 -36.66,16.44 -9.25,10.95 -13.88,28.54 -13.88,52.74l0 173.14 -128.9 0 0 -184.81c0,-14.74 -0.85,-24.74 -2.53,-30.01 -2.74,-8.43 -7.48,-15.16 -14.21,-20.21 -6.76,-5.27 -14.65,-7.9 -23.7,-7.9 -14.73,0 -26.86,5.56 -36.33,16.73 -9.47,11.17 -14.23,29.5 -14.23,54.98l0 171.22 -128.88 0 0 -335.51z"/>
   <path class="fil2" d="M13151.22 16799.51l129.84 0 0 160.5c12.85,-13.49 27.39,-23.59 43.6,-30.33 16.44,-6.75 34.55,-10.1 54.33,-10.1 40.87,0 74.67,14.73 101.43,44.21 26.74,29.28 40.12,71.41 40.12,126.38 0,36.65 -6.12,68.96 -18.33,96.98 -12.21,27.81 -29.18,48.65 -50.86,62.56 -21.49,13.7 -45.38,20.53 -71.71,20.53 -22.53,0 -43.18,-4.84 -61.92,-14.52 -14.13,-7.58 -29.5,-21.81 -46.13,-42.67l0 49.61 -120.37 0 0 -463.15zm128.91 294.45c0,28.86 5.34,49.8 16.09,62.86 10.96,12.85 24.76,19.29 41.39,19.29 15.37,0 28.22,-6.33 38.54,-18.97 10.53,-12.85 15.8,-34.32 15.8,-64.45 0,-26.52 -5.15,-46.02 -15.48,-58.44 -10.11,-12.42 -22.42,-18.65 -36.97,-18.65 -17.47,0 -31.79,6.54 -42.96,19.6 -10.96,12.85 -16.41,32.44 -16.41,58.76z"/>
   <path class="fil2" d="M13544.85 16927.15l135.87 0 69.19 223.36 64.13 -223.36 126.66 0 -132.99 358.57c-15.17,40.86 -30.64,68.45 -46.45,82.78 -22.32,20.22 -56.33,30.33 -102.03,30.33 -18.54,0 -47.19,-2.53 -85.95,-7.59l-10.1 -89.71c18.54,5.9 39.17,8.82 61.92,8.82 15.16,0 27.39,-3.45 36.66,-10.4 9.47,-6.96 17.47,-19.39 24.01,-37.29l-140.92 -335.51z"/>
  </g>
 </g>
</svg>
