<?xml version="1.0" encoding="UTF-8"?>
<!DOCTYPE svg PUBLIC "-//W3C//DTD SVG 1.1//EN" "http://www.w3.org/Graphics/SVG/1.1/DTD/svg11.dtd">
<!-- Creator: CorelDRAW 2021 (64 Bit) -->
<svg xmlns="http://www.w3.org/2000/svg" xml:space="preserve" width="210mm" height="297mm" version="1.1" style="shape-rendering:geometricPrecision; text-rendering:geometricPrecision; image-rendering:optimizeQuality; fill-rule:evenodd; clip-rule:evenodd"
viewBox="0 0 21000 29700"
 xmlns:xlink="http://www.w3.org/1999/xlink"
 xmlns:xodm="http://www.corel.com/coreldraw/odm/2003">
 <defs>
  <style type="text/css">
   <![CDATA[
    .fil0 {fill:#FE4F00}
   ]]>
  </style>
 </defs>
 <g id="Camada_x0020_1">
  <metadata id="CorelCorpID_0Corel-Layer"/>
  <path class="fil0" d="M16558.39 5336.05l-12191.13 0 -3482.09 5992.69 9596.23 0 9558.86 0 -3481.87 -5992.69zm-15633.08 7043.17c-11.9,259.7 0,854.07 0,1196.16 0,641.5 227.85,1337.37 600.09,1800.29l17.2 6589.17c0,1325.9 1106.55,2400.17 2472.8,2400.17l12977.88 0c1363.27,0 2508.04,-1074.27 2508.04,-2400.17l0 -6589.17c421.09,-495.2 599.25,-1000.8 599.25,-1800.29l0 -1196.16 -19175.26 0zm17529.77 7189.05l-15868.15 0 -3.18 -3596.33 1314.86 0c643.41,0 1664.38,-573.12 2094.6,-1451.18 486.07,854.91 1393.22,1451.18 2256.41,1451.18 912.89,0 1916.87,-540.64 2253.23,-1325.26 336.57,763.39 1319.96,1325.26 2215.22,1325.26 886.77,0 1805.38,-649.57 2270.43,-1541.86 541.49,898.45 1316.98,1541.86 2115.62,1541.86 175.83,0 1196.16,29.31 1350.96,0l0 3596.33z"/>
 </g>
</svg>
