<?xml version="1.0" encoding="UTF-8"?>
<!DOCTYPE svg PUBLIC "-//W3C//DTD SVG 1.1//EN" "http://www.w3.org/Graphics/SVG/1.1/DTD/svg11.dtd">
<!-- Creator: CorelDRAW 2021 (64 Bit) -->
<svg xmlns="http://www.w3.org/2000/svg" xml:space="preserve" width="210mm" height="297mm" version="1.1" style="shape-rendering:geometricPrecision; text-rendering:geometricPrecision; image-rendering:optimizeQuality; fill-rule:evenodd; clip-rule:evenodd"
viewBox="0 0 21000 29700"
 xmlns:xlink="http://www.w3.org/1999/xlink"
 xmlns:xodm="http://www.corel.com/coreldraw/odm/2003">
 <defs>
  <style type="text/css">
   <![CDATA[
    .fil0 {fill:#FE4F00;fill-rule:nonzero}
   ]]>
  </style>
 </defs>
 <g id="Camada_x0020_1">
  <metadata id="CorelCorpID_0Corel-Layer"/>
  <g id="_2155737767632">
   <polygon class="fil0" points="9261.34,15932.37 11724.48,15932.37 11724.48,15196.1 9261.34,15196.1 "/>
   <path class="fil0" d="M9263.48 16603.74l2462.96 0 0 1543.41c0,934.59 -2462.96,938.35 -2462.96,0l0 -1543.41z"/>
   <path class="fil0" d="M12701.7 16616.07l8099.03 -3681.38 0 9129.87c0,1251.55 -957.29,2208.83 -2208.82,2208.83l-16198.07 0c-1251.53,0 -2208.82,-957.28 -2208.82,-2208.83l0 -9129.87 8099.03 3681.38 0 1030.84c0,1251.55 957.29,2208.83 2208.83,2208.83 1251.55,0 2208.82,-957.28 2208.82,-2208.83l0 -1030.84z"/>
   <path class="fil0" d="M18591.84 8618.75l-4909.87 0 0 -1472.63c0,-1251.62 -465.06,-1718.46 -1716.5,-1718.46l-2945.08 0c-1251.62,0 -1711.14,466.84 -1711.14,1718.46l0 1472.63 -4915.39 0c-1251.62,0 -2208.84,957.22 -2208.84,2208.67l0 1030.94 8098.98 3681.3 0 -589.91c0,-441.68 294.55,-736.24 736.39,-736.24l2945.08 0c441.66,0 736.21,294.56 736.21,736.24l0 663.48 8099 -3681.31 0 -1104.5c0,-1251.45 -957.24,-2208.67 -2208.84,-2208.67zm-10307.84 -1472.63c0,-441.68 134.95,-743.85 736.39,-736.23l2945.08 0c661.53,-34.73 736.21,294.55 736.21,736.23l0 1472.63 -4417.68 0 0 -1472.63z"/>
  </g>
 </g>
</svg>
