<?xml version="1.0" encoding="UTF-8"?>
<!DOCTYPE svg PUBLIC "-//W3C//DTD SVG 1.1//EN" "http://www.w3.org/Graphics/SVG/1.1/DTD/svg11.dtd">
<!-- Creator: CorelDRAW 2021 (64 Bit) -->
<svg xmlns="http://www.w3.org/2000/svg" xml:space="preserve" width="210mm" height="297mm" version="1.1" style="shape-rendering:geometricPrecision; text-rendering:geometricPrecision; image-rendering:optimizeQuality; fill-rule:evenodd; clip-rule:evenodd"
viewBox="0 0 21000 29700"
 xmlns:xlink="http://www.w3.org/1999/xlink"
 xmlns:xodm="http://www.corel.com/coreldraw/odm/2003">
 <defs>
  <style type="text/css">
   <![CDATA[
    .fil0 {fill:#FE4F00;fill-rule:nonzero}
   ]]>
  </style>
 </defs>
 <g id="Camada_x0020_1">
  <metadata id="CorelCorpID_0Corel-Layer"/>
  <g id="_2155714607360">
   <path class="fil0" d="M25834.15 8343.17l-15109.24 -6715.03c-146.75,-61.53 -311.72,-61.53 -458.58,0l-15109.13 6715.03c-200.68,91 -330.04,291.39 -330.04,512.1 0,220.74 129.36,421.13 330.04,512.14 879.33,393.42 4816.82,2137.44 5590.53,2484.61l9518.6 4230.39c145.35,67.06 313.31,67.06 458.58,0l5646.3 -2507.17 1119.34 -497.93 0 1225.36c-670.54,297.92 -5520.58,2453.27 -6312.08,2803.6 -438.63,195.66 -939.84,193.49 -1376.54,-5.39l-10173.6 -4521.43 0 7934.78c-1.38,208.43 112.55,400.3 296.55,497.97 5398.26,2896.57 11749.67,3446.92 17565.67,1522.17l0 1751.38c-931.35,277.91 -1517.78,1196.95 -1377.27,2158.51 140.25,961.68 964.93,1674.85 1936.77,1674.85 971.83,0 1796.52,-713.17 1936.67,-1674.85 140.62,-961.56 -445.81,-1880.6 -1377.17,-2158.51l0 -12070.25c12.03,-332.16 -276.11,-518.67 -554,-615.54l-6825.41 -3032.43c-277.51,-128.6 -400.69,-456.1 -276.11,-735.83 124.2,-279.37 449.54,-407.6 731.07,-287.67l7053.39 3138.37c562.38,249.16 940.16,790.36 979.12,1404.5 1164.12,-520.51 4902.46,-2180.06 6116.54,-2719.49 198.16,-93.63 324.51,-292.8 324.51,-512.14 0,-219.31 -126.35,-418.48 -324.51,-512.1z"/>
   <path class="fil0" d="M19728.9 13306.77l0 8360.38c468.38,-296.9 1599.01,-496.91 1633.98,-1152.92l0 -7934.78 -1633.98 727.32z"/>
  </g>
 </g>
</svg>
