<?xml version="1.0" encoding="UTF-8"?>
<!DOCTYPE svg PUBLIC "-//W3C//DTD SVG 1.1//EN" "http://www.w3.org/Graphics/SVG/1.1/DTD/svg11.dtd">
<!-- Creator: CorelDRAW 2021 (64 Bit) -->
<svg xmlns="http://www.w3.org/2000/svg" xml:space="preserve" width="210mm" height="297mm" version="1.1" style="shape-rendering:geometricPrecision; text-rendering:geometricPrecision; image-rendering:optimizeQuality; fill-rule:evenodd; clip-rule:evenodd"
viewBox="0 0 21000 29700"
 xmlns:xlink="http://www.w3.org/1999/xlink"
 xmlns:xodm="http://www.corel.com/coreldraw/odm/2003">
 <defs>
  <style type="text/css">
   <![CDATA[
    .fil0 {fill:#FE4F00}
   ]]>
  </style>
 </defs>
 <g id="Camada_x0020_1">
  <metadata id="CorelCorpID_0Corel-Layer"/>
  <g id="_2142685655024">
   <path class="fil0" d="M3365.92 16056.72l-1132.76 -6.94c-33.8,-0.3 -67.58,-0.44 -101.38,-0.74 -151.67,-1.04 -87.94,47.21 -13.57,118.78l79.08 80.86 840.18 858.16 -233.89 916.16 -61.82 242.72c-64.03,234.91 -19.91,210.41 216.61,110.37 55.05,-23.31 111.4,-54.15 170.43,-84.56 372.42,-191.22 816.7,-452.68 959.83,-452.68 137.06,0 550.22,244.49 910.1,432.77 121.43,63.44 237.85,118.34 333.62,159.8 114.93,49.87 149.01,42.2 109.33,-106.98l-29.8 -123.2 -265.6 -1095.88c283.15,-285.22 566.6,-570.29 849.75,-855.49 17.26,-17.28 33.64,-35.58 51.79,-52.1 102.69,-93.4 98.27,-140.61 -24.93,-140.61l-87.8 -0.59 -1107.23 -8.27c-195.5,-378.62 -390.87,-757.23 -586.22,-1135.7 -18.15,-35.41 -36.45,-70.69 -54.6,-105.95 -59.32,-105.5 -96.65,-139.3 -167.17,4.42l-42.35 80.86 -611.6 1164.79z"/>
   <path class="fil0" d="M21436.26 25433.75l-21828.34 10.27c-275.63,0.13 -508.82,-224.53 -520.13,-499.57l-17.75 -431.38 22827.48 -10.74 17.75 431.37c11.31,275.04 -203.38,499.92 -479.01,500.05z"/>
   <path class="fil0" d="M6117.44 19527.32l47.61 5225.58 -4127.38 8.77 -43.06 -4725.89c-2.5,-274.91 220.6,-500.17 494.75,-500.75l3628.08 -7.71z"/>
   <path class="fil0" d="M12526.52 16048.36l47.61 8698.69 -4127.38 14.59 -44.88 -8198.85c-1.5,-274.77 222.42,-500.63 496.57,-501.6l3628.08 -12.83z"/>
   <path class="fil0" d="M18943.71 9090.44l47.61 15644.9 -4127.38 26.26 -46.09 -15145.67c-0.84,-274.92 223.63,-500.67 497.78,-502.41l3628.08 -23.08z"/>
   <path class="fil0" d="M9774.11 12556.63l-1132.76 -6.94c-33.8,-0.29 -67.58,-0.44 -101.37,-0.73 -151.68,-1.04 -87.95,47.21 -13.58,118.78l79.08 80.86 840.18 858.16 -233.89 916.15 -61.82 242.73c-64.03,234.9 -19.91,210.41 216.61,110.37 55.05,-23.31 111.4,-54.15 170.43,-84.56 372.42,-191.23 816.7,-452.68 959.83,-452.68 137.06,0 550.22,244.49 910.1,432.77 121.43,63.44 237.85,118.34 333.62,159.8 114.93,49.87 149.01,42.19 109.33,-106.98l-29.8 -123.21 -265.6 -1095.87c283.15,-285.22 566.6,-570.29 849.75,-855.5 17.26,-17.28 33.65,-35.57 51.79,-52.09 102.69,-93.4 98.27,-140.61 -24.93,-140.61l-87.8 -0.6 -1107.23 -8.26c-195.5,-378.63 -390.87,-757.23 -586.22,-1135.71 -18.15,-35.41 -36.45,-70.68 -54.6,-105.94 -59.32,-105.5 -96.65,-139.3 -167.17,4.42l-42.35 80.86 -611.6 1164.78z"/>
   <path class="fil0" d="M16190.71 5598.66l-1132.76 -6.94c-33.8,-0.29 -67.58,-0.44 -101.37,-0.73 -151.68,-1.04 -87.95,47.21 -13.58,118.78l79.08 80.86 840.18 858.16 -233.88 916.15 -61.83 242.73c-64.03,234.9 -19.91,210.41 216.61,110.36 55.05,-23.3 111.4,-54.14 170.43,-84.55 372.43,-191.23 816.7,-452.68 959.83,-452.68 137.06,0 550.22,244.49 910.1,432.77 121.43,63.44 237.85,118.34 333.62,159.8 114.94,49.87 149.01,42.19 109.33,-106.98l-29.8 -123.21 -265.6 -1095.87c283.15,-285.22 566.6,-570.29 849.75,-855.5 17.26,-17.28 33.65,-35.57 51.79,-52.09 102.69,-93.4 98.27,-140.61 -24.93,-140.61l-87.8 -0.6 -1107.23 -8.26c-195.5,-378.63 -390.87,-757.23 -586.22,-1135.71 -18.15,-35.41 -36.45,-70.68 -54.59,-105.94 -59.33,-105.5 -96.66,-139.3 -167.18,4.42l-42.35 80.86 -611.6 1164.78z"/>
  </g>
 </g>
</svg>
