<?xml version="1.0" encoding="UTF-8"?>
<!DOCTYPE svg PUBLIC "-//W3C//DTD SVG 1.1//EN" "http://www.w3.org/Graphics/SVG/1.1/DTD/svg11.dtd">
<!-- Creator: CorelDRAW 2021 (64 Bit) -->
<svg xmlns="http://www.w3.org/2000/svg" xml:space="preserve" width="210mm" height="297mm" version="1.1" style="shape-rendering:geometricPrecision; text-rendering:geometricPrecision; image-rendering:optimizeQuality; fill-rule:evenodd; clip-rule:evenodd"
viewBox="0 0 21000 29700"
 xmlns:xlink="http://www.w3.org/1999/xlink"
 xmlns:xodm="http://www.corel.com/coreldraw/odm/2003">
 <defs>
  <style type="text/css">
   <![CDATA[
    .fil0 {fill:#FE4F00;fill-rule:nonzero}
   ]]>
  </style>
 </defs>
 <g id="Camada_x0020_1">
  <metadata id="CorelCorpID_0Corel-Layer"/>
  <path class="fil0" d="M15262.67 5910.2c-1992.06,2.98 -3822.47,1096.19 -4769.78,2848.7 -1177.41,-2186.19 -3690.12,-3292.12 -6097.51,-2683.81 -2407.07,608.03 -4092.9,2774.73 -4090.78,5257.64 0,5668.14 9364.97,11955.62 10051.06,12404.82 25.15,17.03 51.71,32.49 79.02,45.73 37.9,11.1 78.5,11.1 116.42,0 27.31,-13.24 53.85,-28.7 79.02,-45.73 686.07,-449.2 10051.04,-6736.68 10051.04,-12404.82 -2.98,-2991.9 -2426.6,-5417.4 -5418.49,-5422.53zm-1536.14 10007.74c0,115.05 -93.15,207.92 -207.92,207.92l-1750.81 0 0 1750.78c0,114.8 -92.87,207.92 -207.92,207.92l-2133.98 0c-115.05,0 -207.94,-93.12 -207.94,-207.92l0 -1750.78 -1750.79 0c-114.77,0 -207.91,-92.87 -207.91,-207.92l0 -2133.99c0,-115.07 93.14,-207.94 207.91,-207.94l1750.79 0 0 -1750.78c0,-114.78 92.89,-207.92 207.94,-207.92l2133.98 0c115.05,0 207.92,93.14 207.92,207.92l0 1750.78 1750.81 0c114.77,0 207.92,92.87 207.92,207.94l0 2133.99z"/>
 </g>
</svg>
