<?xml version="1.0" encoding="UTF-8"?>
<!DOCTYPE svg PUBLIC "-//W3C//DTD SVG 1.1//EN" "http://www.w3.org/Graphics/SVG/1.1/DTD/svg11.dtd">
<!-- Creator: CorelDRAW 2021 (64 Bit) -->
<svg xmlns="http://www.w3.org/2000/svg" xml:space="preserve" width="210mm" height="297mm" version="1.1" style="shape-rendering:geometricPrecision; text-rendering:geometricPrecision; image-rendering:optimizeQuality; fill-rule:evenodd; clip-rule:evenodd"
viewBox="0 0 21000 29700"
 xmlns:xlink="http://www.w3.org/1999/xlink"
 xmlns:xodm="http://www.corel.com/coreldraw/odm/2003">
 <defs>
  <style type="text/css">
   <![CDATA[
    .fil1 {fill:#FE4F00}
    .fil0 {fill:#FE4F00;fill-rule:nonzero}
   ]]>
  </style>
 </defs>
 <g id="Camada_x0020_1">
  <metadata id="CorelCorpID_0Corel-Layer"/>
  <g id="_2147931247824">
   <path class="fil0" d="M3983.74 24109.14c-526.43,0 -1001.3,317.29 -1202.53,803.75 -201.61,486.26 -90.18,1046.1 282.15,1418.43 372.32,372.32 932.35,483.75 1418.62,282.33 486.26,-201.42 803.55,-676.09 803.55,-1202.72 0,-718.96 -582.82,-1301.79 -1301.79,-1301.79z"/>
   <path class="fil0" d="M17002.01 24109.14c-526.62,0 -1001.11,317.29 -1202.53,803.75 -201.41,486.26 -90.18,1046.1 282.15,1418.43 372.32,372.32 932.35,483.75 1418.62,282.33 486.46,-201.42 803.74,-676.09 803.74,-1202.72 0,-718.96 -583.01,-1301.79 -1301.98,-1301.79z"/>
   <path class="fil0" d="M20039.71 21722.44l-19093.47 0c-178.83,2.12 -323.28,146.57 -325.6,325.39l0 1084.93c2.32,178.82 146.77,323.27 325.6,325.39l19093.47 0c178.83,-2.12 323.08,-146.57 325.4,-325.39l0 -1084.93c-2.32,-178.82 -146.57,-323.27 -325.4,-325.39z"/>
   <path class="fil0" d="M11686.33 4507.2l0 -325.4c0,-659.1 -534.35,-1193.45 -1193.45,-1193.45 -659.1,0 -1193.26,534.35 -1193.26,1193.45l0 325.4c1453,0 1299.47,0 2386.71,0z"/>
   <path class="fil1" d="M6491.92 14996.24c51.95,-613.14 564.86,-1084.73 1180.32,-1084.73l790.03 0c-21.43,106.99 -31.67,216.1 -30.51,325.4l0 325.4 -759.52 0c-254.72,1.74 -472.94,183.65 -520.64,433.93l-659.68 0zm1384.25 -9329.77l5233.61 0c3035.96,0 5519.61,2483.65 5519.61,5519.61l0 9885.37 -3146.03 0c659.1,0 1193.25,-534.16 1193.25,-1193.26l0 -5641.28c0,-659.1 -534.15,-1193.26 -1193.25,-1193.26l-542.66 0 0 -774.39c0,-358.03 -292.95,-650.79 -650.99,-650.79l-2820.25 0c-358.04,0 -650.99,292.76 -650.99,650.6l0 0.19 0 774.39 -542.46 0c-659.1,0 -1193.45,534.16 -1193.45,1193.26l0 5641.28c0,659.1 534.35,1193.26 1193.45,1193.26l-1397.38 0c-288.13,-330.81 -446.68,-754.51 -446.87,-1193.26l0 -4230.96 -2929.17 0c-659.1,0 -1193.26,534.35 -1193.26,1193.26l0 3037.7c0,659.1 534.16,1193.26 1193.26,1193.26l-3146.04 0 0 -9885.37c0,-3035.96 2483.66,-5519.61 5519.62,-5519.61zm6413.73 7377.18l-2820.63 0 0 -774.39 2820.63 0 0 774.39zm-3254.56 6075.02l3688.49 0 0 -1084.73 -3688.49 0 0 1084.73zm4339.48 -1410.13c-2.31,-179.02 -146.57,-323.27 -325.39,-325.59l-4339.49 0c-178.83,2.32 -323.28,146.57 -325.4,325.59l0 1735.72c2.12,178.82 146.57,323.27 325.4,325.4l4339.49 0c178.82,-2.13 323.08,-146.58 325.39,-325.4l0 -1735.72zm0 -2603.77c-2.31,-178.82 -146.57,-323.27 -325.39,-325.4l-4339.49 0c-433.93,0 -433.93,650.8 0,650.8l4339.49 0c178.82,-2.12 323.08,-146.58 325.39,-325.4z"/>
  </g>
 </g>
</svg>
