<?xml version="1.0" encoding="UTF-8"?>
<!DOCTYPE svg PUBLIC "-//W3C//DTD SVG 1.1//EN" "http://www.w3.org/Graphics/SVG/1.1/DTD/svg11.dtd">
<!-- Creator: CorelDRAW 2021 (64 Bit) -->
<svg xmlns="http://www.w3.org/2000/svg" xml:space="preserve" width="210mm" height="297mm" version="1.1" style="shape-rendering:geometricPrecision; text-rendering:geometricPrecision; image-rendering:optimizeQuality; fill-rule:evenodd; clip-rule:evenodd"
viewBox="0 0 21000 29700"
 xmlns:xlink="http://www.w3.org/1999/xlink"
 xmlns:xodm="http://www.corel.com/coreldraw/odm/2003">
 <defs>
  <style type="text/css">
   <![CDATA[
    .fil0 {fill:#FE4F00;fill-rule:nonzero}
   ]]>
  </style>
 </defs>
 <g id="Camada_x0020_1">
  <metadata id="CorelCorpID_0Corel-Layer"/>
  <g id="_2155707579680">
   <path class="fil0" d="M19872.96 23002.67l-18760.17 0c-110.32,0 -199.59,89.27 -199.59,199.58l0 1197.46c0,551.17 446.71,997.89 997.89,997.89l17163.57 0c551.18,0 997.88,-446.72 997.88,-997.89l0 -1197.46c0,-110.31 -89.26,-199.58 -199.58,-199.58z"/>
   <path class="fil0" d="M6914.12 7348.91c698.36,-121.23 1414.39,-90.64 2099.84,89.81 298.01,81.14 586.25,194.74 859.53,338.94 310.64,166.85 643.53,288.89 988.49,362.32 315.79,68.41 637.96,103.14 960.87,103.49 1677.14,22.66 3195.37,-989.7 3819.04,-2546.74 83.42,-220.24 30.79,-468.9 -134.87,-636.3 -165.64,-167.45 -413.97,-222.99 -634.94,-141.9 -657.41,267.77 -1377.38,342.62 -2075.7,215.54 -376.75,-87.32 -746.27,-202.32 -1106.04,-344.17 -543.95,-223.98 -1113.1,-381.84 -1694.87,-470.1 -1590.91,-149.69 -3097.71,741.18 -3733.66,2207.21 -82.03,201.33 -49.31,431.34 85.76,601.68 135.27,170.34 351.8,254.5 566.55,220.22z"/>
   <path class="fil0" d="M3484.9 8876.83l-180.27 1306.78c-16.56,120.65 77.73,227.82 199.58,226.67l5198.11 0c121.64,1.15 216.15,-106.02 199.58,-226.67l-180.46 -1306.78c-69.95,-493.5 -491.92,-860.67 -990.31,-861.46l-3257.89 0c-497.59,1.74 -918.59,368.57 -988.34,861.46z"/>
   <path class="fil0" d="M3193.9 11571.96l-444.53 3233.18c-16.58,120.44 77.73,227.82 199.57,226.67 24.34,-0.19 48.49,-4.48 71.3,-13.26l5996.47 -2296.68c86.71,-33.33 138.95,-121.64 126.28,-213.6l-129.38 -936.31c-13.66,-99.6 -99.23,-173.48 -199.58,-172.49l-5422.08 0c-99.79,-0.2 -184.41,73.5 -198.05,172.49z"/>
   <path class="fil0" d="M19639.85 10177.19c-270.31,-186.5 -615.48,-227.62 -922.03,-109.71l-17163.58 6573.15c-384.94,149.08 -639.27,518.84 -641.04,931.62l0 4241c0,110.3 89.27,199.58 199.59,199.58l13571.18 0 0 -3991.53c0,-771.61 625.43,-1397.04 1397.04,-1397.04 771.61,0 1397.04,625.43 1397.04,1397.04l0 3991.53 2394.91 0c110.32,0 199.58,-89.28 199.58,-199.58l0 -10813.76c0,-328.6 -161.96,-636.14 -432.69,-822.3zm-12539.78 9640.3c0,220.42 -178.72,399.15 -399.15,399.15l-1995.76 0c-220.43,0 -399.16,-178.73 -399.16,-399.15l0 -1197.46c0,-220.44 178.73,-399.15 399.16,-399.15l1995.76 0c220.43,0 399.15,178.71 399.15,399.15l0 1197.46zm5188.99 0c0,220.42 -178.73,399.15 -399.15,399.15l-1995.76 0c-220.44,0 -399.16,-178.73 -399.16,-399.15l0 -1197.46c0,-220.44 178.72,-399.15 399.16,-399.15l1995.76 0c220.42,0 399.15,178.71 399.15,399.15l0 1197.46z"/>
  </g>
 </g>
</svg>
