<?xml version="1.0" encoding="UTF-8"?>
<!DOCTYPE svg PUBLIC "-//W3C//DTD SVG 1.1//EN" "http://www.w3.org/Graphics/SVG/1.1/DTD/svg11.dtd">
<!-- Creator: CorelDRAW 2021 (64 Bit) -->
<svg xmlns="http://www.w3.org/2000/svg" xml:space="preserve" width="210mm" height="297mm" version="1.1" style="shape-rendering:geometricPrecision; text-rendering:geometricPrecision; image-rendering:optimizeQuality; fill-rule:evenodd; clip-rule:evenodd"
viewBox="0 0 21000 29700"
 xmlns:xlink="http://www.w3.org/1999/xlink"
 xmlns:xodm="http://www.corel.com/coreldraw/odm/2003">
 <defs>
  <style type="text/css">
   <![CDATA[
    .fil0 {fill:#FE4F00}
   ]]>
  </style>
 </defs>
 <g id="Camada_x0020_1">
  <metadata id="CorelCorpID_0Corel-Layer"/>
  <g id="_2142524390672">
   <path class="fil0" d="M6088.16 6786.95l0 865.4c-1021.5,0 -2062.78,-122.12 -2898.43,327.12 -398.28,214.11 -584.75,383.44 -888.23,685.2 -1037.06,1031.1 -854.98,2537.97 -854.98,4022.66l18094.49 0c0,-1899.66 252.46,-3588.02 -1717.84,-4693.89 -695.91,-390.58 -1487.35,-341.09 -2257.62,-341.09l0 2084.79c0,811.57 -509.93,1322.09 -1177.53,1322.09 -314.31,0 -249.39,21.69 -511.37,-39.34l0 -771.38c559.83,374.88 1022.73,-65.75 1022.73,-472.02l0 -2989.54c0,-807.93 -1258.74,-824.39 -1258.74,0l0 865.4 -5627.27 0 0 2084.79c0,811.57 -510.22,1322.09 -1177.84,1322.09 -314.29,0 -249.38,21.69 -511.36,-39.34l0 -771.38c559.82,374.88 1022.73,-65.75 1022.73,-472.02l0 -2989.54c0,-807.93 -1258.74,-824.39 -1258.74,0z"/>
   <path class="fil0" d="M1446.52 13355.98l18094.5 0 0 3962.24c-40.02,-101.04 -83.85,-199.86 -131.64,-296.02 -535.21,-1077.07 -1390.78,-2078.19 -2523.56,-2544.52 -757.08,-311.66 -1328.81,-460 -2164.52,-460 -2727.53,0 -5032.35,2304.83 -5032.35,5032.35 0,1934.83 890.59,3410.73 2444.27,4375.92l-7496.55 0c-1754.57,0 -3190.15,-1435.57 -3190.15,-3190.15l0 -6879.82z"/>
   <path class="fil0" d="M10355.03 19050.03c0,2001.3 1063.01,3300.45 2608.77,4078.32 1551.25,780.66 3665.7,373.93 4914.42,-882.07 367.91,-370.05 667.39,-794.08 908.31,-1294.49 515.34,-1070.43 558.73,-2561.82 26.36,-3633.19 -458.14,-921.94 -1197.52,-1820.28 -2180.63,-2224.99 -613.28,-252.46 -1088.94,-409.85 -1910.96,-409.85 -2359.91,0 -4366.27,2006.43 -4366.27,4366.27zm3068.13 -228.77l1182.49 1045.23 1458.72 -2223.93c95.25,-145.22 292.72,-185.09 437.67,-89.34l30.81 20.35c144.94,95.76 184.6,292.44 89.35,437.67l-1645.07 2508.03c-14.12,21.51 -30.48,40.7 -48.58,57.5l-22.84 25.82c-115.03,130.15 -315.7,142.52 -445.83,27.48l-1479.56 -1307.83c-130.14,-115.04 -142.52,-315.69 -27.47,-445.85l24.46 -27.67c115.06,-130.17 315.69,-142.53 445.85,-27.46z"/>
   <polygon class="fil0" points="1446.56,13356.04 8384.94,13356.04 8384.94,23426.05 1446.56,23426.05 "/>
  </g>
 </g>
</svg>
