<?xml version="1.0" encoding="UTF-8"?>
<!DOCTYPE svg PUBLIC "-//W3C//DTD SVG 1.1//EN" "http://www.w3.org/Graphics/SVG/1.1/DTD/svg11.dtd">
<!-- Creator: CorelDRAW 2021 (64 Bit) -->
<svg xmlns="http://www.w3.org/2000/svg" xml:space="preserve" width="210mm" height="297mm" version="1.1" style="shape-rendering:geometricPrecision; text-rendering:geometricPrecision; image-rendering:optimizeQuality; fill-rule:evenodd; clip-rule:evenodd"
viewBox="0 0 21000 29700"
 xmlns:xlink="http://www.w3.org/1999/xlink"
 xmlns:xodm="http://www.corel.com/coreldraw/odm/2003">
 <defs>
  <style type="text/css">
   <![CDATA[
    .fil0 {fill:#FE4F00}
   ]]>
  </style>
 </defs>
 <g id="Camada_x0020_1">
  <metadata id="CorelCorpID_0Corel-Layer"/>
  <g id="_2154930318960">
   <path class="fil0" d="M6469.45 17486.66l-653.68 0 0 5577.33c980.95,0 891.68,-172.07 1535.69,468.63 160.67,159.67 393.46,332.31 590.35,455.5 378.91,236.97 1020.48,470.21 1621.23,470.21l4139.43 0c463.86,0 954.7,-396.94 1146.83,-857.49 114.09,-273.18 651.65,-2907.65 743.82,-3308.34 90.72,-393.91 331.6,-1413.24 331.6,-1760.13 0,-435.87 -233.09,-705.31 -503.24,-891.08 -329.59,-226.88 -761.86,-154.63 -1283.28,-154.63 -958.58,0 -1917.18,0 -2875.79,0 300.02,-567 344.3,-663.63 560.81,-1312.7 82.93,-248.37 152.3,-480.59 223.42,-735.16 177.83,-635.94 303.75,-1111.35 -21.64,-1764.88 -319.92,-642.28 -972.16,-1067.35 -1764.73,-1067.35 -966.67,0 -656.42,1444.82 -2091,3311.95 -288.76,375.89 -1410.49,1568.14 -1699.82,1568.14z"/>
   <path class="fil0" d="M8711.6 9207.79c0,1037.2 -639.4,2222.25 -87.11,2222.25 139.47,0 165.43,-39.38 254.56,-93.89l689.76 -356.13c1224.27,-659.3 620.06,-614.15 2323.92,231.79 84.68,42.11 141.93,74.13 224.3,124.34 938.11,572.89 167.6,-1213.47 167.6,-2084.66 0,-300.59 1513.18,-1367.22 1481.44,-1612.27 -124.04,-234.39 -154.91,-207.99 -447.55,-249.67 -2229.62,-317.04 -1571.03,54.81 -2457.37,-1725.65 -154.03,-309.53 -143.36,-421.17 -406.59,-421.17 -171.94,0 -343.28,469.49 -421.32,624.4l-521.42 1090.86c-170.34,310.83 -644.59,261.07 -1298.4,357.42 -231.22,34.03 -792.88,74.86 -906.82,186.2 -247.65,242.04 193.13,475.98 327.42,605.23 119.7,115.09 1077.58,1052.2 1077.58,1100.95z"/>
   <path class="fil0" d="M999.28 9251.49c-2.15,3.18 -147.69,11.1 51.64,249.96 54.96,65.93 133.43,131.69 198.76,196.6 142.36,141.35 250.97,265.1 403.14,381.21 88.85,67.8 784.35,728.97 784.35,784.36 0,1096.35 -638.52,2222.25 -87.26,2222.25 189.53,0 749.17,-353.95 944.03,-450.45 1210,-599.16 645.74,-604.63 1859.21,0.15 184.04,91.72 280.83,151.02 450.88,246.35 167.45,93.9 345.88,203.95 536.7,203.95 456.22,0 -130.67,-1289.47 -130.67,-2178.68 0,-163.29 894.26,-917.06 1165.57,-1187.36 81.49,-81.07 256.59,-218.24 288.76,-324.69 48.32,-160.24 23.07,-80.19 -16.44,-143.65 -39.09,-146.84 -29.14,-120.86 -189.25,-159.39l-1517.79 -225.15c-277.08,-31.44 -393.91,8.52 -504.39,-192.69l-693.34 -1398.23c-261.8,-529.92 -377.33,-529.92 -639.13,0 -84.95,171.94 -146.68,293.38 -232.36,464.88 -660.16,1320.48 -134.29,1013.55 -2180.56,1305.19 -387.7,55.24 -443.52,24.23 -491.85,205.39z"/>
   <path class="fil0" d="M14986.02 10863.62c0,1096.35 -638.38,2222.25 -87.11,2222.25 189.53,0 749.16,-353.95 943.88,-450.45 1210.15,-599.16 645.89,-604.63 1859.35,0.15 1247.5,621.79 1279.09,805.84 1006.05,-701 -264.96,-1461.68 -302.31,-900.89 1016.43,-2214.74 81.35,-81.07 256.6,-218.24 288.62,-324.69 48.32,-160.24 23.07,-80.19 -16.29,-143.65 -71.83,-166.16 6.04,-134.43 -491.86,-205.39 -219.67,-31.29 -432.12,-60.87 -610.55,-86.53 -509,-73.28 -991.05,-70.4 -1109.17,-285.31l-693.21 -1398.23c-203.51,-411.64 -351.65,-594.68 -595.97,-87.41l-708.93 1426.07c-99.1,206.98 -101.54,200.78 -332.02,234.52 -283.73,41.41 -1756.67,207.27 -1872.06,310.11 -384.67,343.15 1402.84,1434.86 1402.84,1704.3z"/>
   <path class="fil0" d="M4888.92 16789.65l31.8 6959.96 -2268.19 9.61c-268.82,1.14 -489.55,-217.78 -490.78,-486.39l-27.34 -5983.05c-1.22,-268.61 217.5,-489.39 486.32,-490.53l2268.19 -9.6z"/>
  </g>
 </g>
</svg>
