<?xml version="1.0" encoding="UTF-8"?>
<!DOCTYPE svg PUBLIC "-//W3C//DTD SVG 1.1//EN" "http://www.w3.org/Graphics/SVG/1.1/DTD/svg11.dtd">
<!-- Creator: CorelDRAW 2021 (64 Bit) -->
<svg xmlns="http://www.w3.org/2000/svg" xml:space="preserve" width="210mm" height="297mm" version="1.1" style="shape-rendering:geometricPrecision; text-rendering:geometricPrecision; image-rendering:optimizeQuality; fill-rule:evenodd; clip-rule:evenodd"
viewBox="0 0 21000 29700"
 xmlns:xlink="http://www.w3.org/1999/xlink"
 xmlns:xodm="http://www.corel.com/coreldraw/odm/2003">
 <defs>
  <style type="text/css">
   <![CDATA[
    .fil1 {fill:#FE4F00}
    .fil0 {fill:white}
   ]]>
  </style>
 </defs>
 <g id="Camada_x0020_1">
  <metadata id="CorelCorpID_0Corel-Layer"/>
  <g id="_2143438809856">
   <polygon class="fil0" points="7832.88,18901.76 13323.09,18901.76 13323.09,24069.02 10580.74,21804.99 7832.88,24069.02 "/>
   <path class="fil1" d="M3939.07 14826.89c127.32,122.4 176.32,305.14 127.32,474.82l-232.58 867.5c-173.04,646.68 210.37,1311.22 856.73,1484.91l906.52 242.71c171.22,41.94 304.98,175.72 346.75,346.91l233.01 869.83c174.46,645.76 838.37,1028.41 1484.42,855.64l906.52 -242.58c169.36,-48.7 351.68,0.47 473.71,127.63l636.18 635.7c474.23,471.42 1240.01,471.42 1714.24,0l663.6 -663.44c121.91,-127.48 304.54,-176.64 473.91,-127.79l868.88 234.11c646.36,170.28 1309.21,-212.69 1484.27,-857.78l242.87 -906.36c41.94,-171.39 175.72,-305.13 346.91,-347.07l868.91 -231.95c645.26,-175.05 1028.08,-838.37 857.01,-1484.7l-242.87 -906.36c-49.01,-169.68 0,-352.47 127.31,-474.82l635.4 -635.74c472.52,-473.29 472.52,-1239.82 0,-1713.1l-664.08 -664.7c-126.21,-122.54 -174.75,-304.7 -126.21,-473.92l232.69 -867.65c172.33,-646.67 -211.12,-1310.75 -857.31,-1484.89l-904.67 -244.26c-172.13,-40.08 -306.98,-173.67 -348.61,-345.37l-232.68 -869.67c-175.26,-645.13 -838.07,-1028.1 -1484.43,-857.79l-906.36 242.72c-169.05,49.63 -351.68,1.22 -474.03,-125.58l-635.91 -635.91c-473.56,-472.64 -1240.44,-472.64 -1714.19,0l-663.45 663.64c-122.22,126.69 -304.85,175.22 -473.75,125.74l-869.03 -232.1c-646.53,-172.3 -1310.75,211.47 -1484.28,857.83l-243.06 906.32c-41.9,171.38 -175.85,305.16 -347.34,347.07l-868.45 231.94c-646.35,173.68 -1029.93,838.23 -856.88,1484.89l242.75 906.33c48.84,169.1 0.28,351.4 -126.1,473.9l-637.09 636.51c-472.35,473.27 -472.35,1239.85 0,1713.13l663.45 663.6 0 0.15z"/>
   <path class="fil0" d="M10584.43 7634.82c3089.28,0 5593.57,2475.61 5593.57,5529.52 0,3053.84 -2504.29,5529.45 -5593.57,5529.45 -3089.2,0 -5593.48,-2475.61 -5593.48,-5529.45 0,-3053.91 2504.28,-5529.52 5593.48,-5529.52zm0.03 224.33c2963.9,0 5366.61,2375.2 5366.61,5305.16 0,2929.95 -2402.71,5305.16 -5366.61,5305.16 -2963.87,0 -5366.58,-2375.21 -5366.58,-5305.16 0,-2929.96 2402.71,-5305.16 5366.58,-5305.16z"/>
   <path class="fil0" d="M10584.47 8644.55c2529.98,0 4580.9,2023.55 4580.9,4519.76 0,2496.21 -2050.92,4519.75 -4580.9,4519.75 -2529.98,0 -4580.9,-2023.54 -4580.9,-4519.75 0,-2496.21 2050.92,-4519.76 4580.9,-4519.76z"/>
  </g>
 </g>
</svg>
